<svg width="940" height="895" viewBox="0 0 940 895" fill="none" xmlns="http://www.w3.org/2000/svg">
<ellipse cx="285.5" cy="289" rx="285.5" ry="289" fill="#1E1E1E"/>
<ellipse cx="654.5" cy="289" rx="285.5" ry="289" fill="#1E1E1E"/>
<ellipse cx="472.5" cy="606" rx="285.5" ry="289" fill="#1E1E1E"/>
<path d="M83.8674 379.47L89.7218 395.515C91.8928 401.465 95.018 407.022 98.9747 411.968C139.805 463.007 220.838 418.606 199.797 356.725L197 348.5L192.401 337.463C187.185 324.945 184.5 311.518 184.5 297.957V296.271C184.5 285.505 186.368 274.821 190.02 264.694C193.646 254.64 198.977 245.285 205.779 237.041L212 229.5C222.414 213.879 237.381 201.839 254.871 195.014L260.823 192.691C266.266 190.567 271.869 188.878 277.579 187.641L279.241 187.281C292.286 184.455 305.76 184.221 318.895 186.592C329.563 188.518 339.855 192.136 349.382 197.308L352.5 199L358.918 202.488C369.888 208.45 379.732 216.284 388.005 225.636C394.964 233.503 400.728 242.35 405.113 251.893L406.203 254.266C412.329 267.598 415.5 282.096 415.5 296.767V297.685C415.5 311.407 412.604 324.974 407 337.5L403.104 347.584C400.049 355.491 395.921 362.939 390.836 369.719C384.004 378.828 375.548 386.595 365.892 392.63L358.341 397.35C354.461 399.774 350.893 402.664 347.716 405.955C306.706 448.43 350.701 517.282 406.475 497.912L423.5 492L440.5 488.5L455.78 485.635C461.581 484.547 467.47 484 473.372 484C484.048 484 494.649 485.791 504.733 489.298L512.5 492L522.084 496.108C529.653 499.351 536.701 503.696 543 509L555.337 520.025C562.73 526.631 568.998 534.396 573.895 543.016C577.288 548.986 579.996 555.32 581.969 561.897L583.649 567.496C586.534 577.114 588 587.101 588 597.142C588 606.997 586.588 616.8 583.808 626.254L582.207 631.695C577.788 646.72 570.167 660.609 559.867 672.407C552.01 681.407 542.719 689.047 532.371 695.017L531.246 695.666C525.095 699.214 518.631 702.192 511.937 704.561L506.796 706.38C495.349 710.43 483.296 712.5 471.154 712.5C462.417 712.5 453.691 711.423 445.216 709.304C433.836 706.459 422.969 701.76 413.108 695.408L411.969 694.675C403.032 688.919 394.933 681.958 387.901 673.987L376 660.5C335.579 606.992 251.526 653.098 275.277 715.811C277.085 720.583 279.513 725.095 282.501 729.232L291 741L296.715 747.877C312.455 766.819 331.323 782.926 352.5 795.5L371.696 805.932C389.435 815.574 408.689 822.121 428.628 825.293C437.862 826.762 447.197 827.5 456.546 827.5H464.883C477.945 827.5 490.989 826.573 503.919 824.726L510.855 823.735C525.908 821.585 540.684 817.816 554.928 812.494C570.917 806.52 586.123 798.631 600.215 788.999L618.5 776.5L623.895 771.759C642.222 755.654 658.39 737.248 672 717L682.788 695.732C687.256 686.924 691.021 677.778 694.048 668.377C697.343 658.145 699.753 647.648 701.25 637.003L703.5 621V586L701.956 572.793C699.991 555.98 696.222 539.427 690.715 523.42L690.004 521.355C685.346 507.819 679.344 494.784 672.086 482.446C666.039 472.167 659.045 462.291 651.374 453.16C638.302 437.598 622.959 423.726 606.122 412.343L596 405.5L583.551 396.216C572.252 387.79 562.329 377.661 554.137 366.192L553.48 365.272C548.837 358.772 544.831 351.841 541.517 344.575L540.318 341.948C535.8 332.042 532.836 321.498 531.531 310.689L531.378 309.414C530.462 301.832 530.462 294.168 531.378 286.586C532.78 274.962 536.315 263.695 541.803 253.352L546.5 244.5L555.022 232.356C562.595 221.565 572.284 212.428 583.5 205.5L591.424 200.624C603.362 193.278 616.61 188.315 630.435 186.011L631.725 185.796C642.83 183.945 654.166 183.969 665.263 185.867C679.263 188.262 692.597 193.591 704.392 201.504L710.569 205.648C720.785 212.501 729.782 221.014 737.19 230.834C744.023 239.89 749.418 249.946 753.186 260.647L753.447 261.389C757.784 273.707 760 286.672 760 299.731V301.229C760 312.688 758.414 324.092 755.288 335.116L750.5 352L748.827 357.497C730.236 418.581 809.251 460.791 849.689 411.379C852.883 407.476 855.557 403.175 857.643 398.584L859.5 394.5L871.5 355.5C875.82 336.56 878 317.195 878 297.768V296.5L873.526 260.707C872.178 249.923 869.893 239.277 866.697 228.889C861.919 213.363 855.14 198.524 846.53 184.748L832 161.5L831.712 161.123C818.948 144.431 804.278 129.288 788 116L777.926 109.782C757.691 97.2906 736.28 86.8133 714 78.5L690.91 72.6639C676.027 68.9025 660.736 67 645.386 67C631.506 67 617.669 68.5555 604.136 71.6374L595.569 73.5882C581.232 76.8531 567.293 81.6672 553.997 87.9459C543.353 92.9724 533.166 98.9161 523.552 105.71L502.342 120.699C501.115 121.565 499.952 122.517 498.861 123.548L483.014 138.514C477.909 143.336 469.763 142.725 465.435 137.194C464.814 136.401 464.096 135.69 463.296 135.078L426 106.5L409.761 95.9923C397.966 88.3605 385.267 82.2266 371.957 77.7323C359.693 73.5911 346.994 70.8704 334.11 69.6235L327.563 68.99C313.883 67.6661 300.11 67.5905 286.417 68.7643L276.641 69.6022C261.922 70.8639 247.377 73.6788 233.249 78.0002C219.123 82.3213 205.493 88.1243 192.587 95.3125L191.572 95.8776C178.888 102.942 166.933 111.242 155.882 120.656L147.011 128.213C137.024 136.72 127.833 146.118 119.549 156.291C108.886 169.385 99.7501 183.774 92.4136 198.984C86.1779 211.912 81.1978 225.501 77.6196 239.401L77.0582 241.582C72.3714 259.788 70 278.512 70 297.312C70 311.737 71.3962 326.128 74.1689 340.283L77.0507 354.996C78.6811 363.319 80.9603 371.502 83.8674 379.47Z" fill="url(#paint0_linear_7_4)"/>
<defs>
<linearGradient id="paint0_linear_7_4" x1="822" y1="128" x2="179.5" y2="621" gradientUnits="userSpaceOnUse">
<stop stop-color="#5975DA"/>
<stop offset="1" stop-color="#25C164"/>
</linearGradient>
</defs>
</svg>
